<?xml version="1.0" encoding="utf-8"?>
<!-- Generator: Adobe Illustrator 19.0.0, SVG Export Plug-In . SVG Version: 6.00 Build 0)  -->
<svg version="1.1" id="Capa_1" xmlns="http://www.w3.org/2000/svg" xmlns:xlink="http://www.w3.org/1999/xlink" x="0px" y="0px"
	 width="654.3px" height="654.3px" viewBox="-466 467.1 654.3 654.3" style="enable-background:new -466 467.1 654.3 654.3;"
	 xml:space="preserve">
<style type="text/css">
	.st0{fill:#606060;}
</style>
<g>
	<g id="user">
		<g>
			<path class="st0" d="M0.1,868.6c52.3-41.2,86-104.9,86-176.7c0-124.2-100.7-224.9-224.9-224.9S-363.8,567.8-363.8,692
				c0,71.7,33.7,135.5,86,176.7c-93.8,47.8-159.7,142.2-167,252.8h41c7.9-103.5,75.2-190.3,167.9-226.8
				c29.4,14.2,62.3,22.3,97.2,22.3c34.9,0,67.7-8.2,97.2-22.3c92.7,36.5,160,123.2,167.9,226.8h41
				C159.9,1010.8,93.9,916.4,0.1,868.6z M-138.8,876c-101.6,0-184-82.4-184-184c0-101.6,82.4-184,184-184s184,82.4,184,184
				C45.2,793.6-37.2,876-138.8,876z"/>
		</g>
	</g>
</g>
</svg>
