<svg xmlns="http://www.w3.org/2000/svg" viewBox="0 0 105.54 118.4"><defs><style>.cls-1{fill:#ea582b;}</style></defs><title>資產 1</title><g id="圖層_2" data-name="圖層 2"><g id="圖層_1-2" data-name="圖層 1"><path class="cls-1" d="M100,32.66H75.66C75.62,22.24,70,.09,52.79,0c-18.94-.09-23,23.89-23,32.66H5.45c-6.55,0-5.37,6.63-5.37,6.63l4.7,64.51S4.59,118,17.08,118.39c.81,0,69.84,0,71.42,0,12.08-.78,12.25-14.62,12.25-14.62l4.72-64.53S106.57,32.52,100,32.66ZM52.84,5.91C68,6.29,69.55,30.69,69.65,32.66H35.77C35.83,30.69,36.84,6.31,52.84,5.91ZM69.62,94.52c-1.91,3.41-5.43,5.53-9.1,6.61-8.26,2.44-17.35-.15-24-5.28a2,2,0,0,1,2-3.49c6.82,5.22,17.18,8.12,24.77,3.14a8.62,8.62,0,0,0,3.6-9.75c-1.15-3.45-4.34-5.84-7.35-7.45-4-2.11-9.39-3.79-12-5.1-3.42-1.71-7.17-4-8.91-7.54-2.18-4.41-.75-9.84,2.54-13.31,6.66-7,18.26-5.87,25.66-.7,2.12,1.49.1,5-2,3.49-3.79-2.65-8.91-4.31-13.53-3.55-5,.82-10.37,4.76-9.62,10.47.46,3.55,3.85,5.65,6.73,7.15a45.12,45.12,0,0,0,5.14,2.19c6.16,2.25,12.91,5.13,16.13,10.66A12.74,12.74,0,0,1,69.62,94.52Z"/></g></g></svg>